<svg xmlns="http://www.w3.org/2000/svg" xmlns:xlink="http://www.w3.org/1999/xlink" width="2079" zoomAndPan="magnify" viewBox="0 0 1559.25 1559.249931" height="2079" preserveAspectRatio="xMidYMid meet" version="1.0"><defs><filter x="0%" y="0%" width="100%" height="100%" id="b73740971b"><feColorMatrix values="0 0 0 0 1 0 0 0 0 1 0 0 0 0 1 0 0 0 1 0" color-interpolation-filters="sRGB"/></filter><clipPath id="576ed07f0a"><path d="M 0 0 L 1558.5 0 L 1558.5 1558.5 L 0 1558.5 Z M 0 0 " clip-rule="nonzero"/></clipPath><mask id="f116c123b4"><g filter="url(#b73740971b)"><rect x="-155.925" width="1871.1" fill="#000000" y="-155.924993" height="1871.099917" fill-opacity="0.5"/></g></mask><clipPath id="3cb20923c7"><path d="M 0 0 L 1558.304688 0 L 1558.304688 1558.304688 L 0 1558.304688 Z M 0 0 " clip-rule="nonzero"/></clipPath><clipPath id="eb128c7246"><path d="M 779.152344 0 C 348.839844 0 0 348.839844 0 779.152344 C 0 1209.46875 348.839844 1558.304688 779.152344 1558.304688 C 1209.46875 1558.304688 1558.304688 1209.46875 1558.304688 779.152344 C 1558.304688 348.839844 1209.46875 0 779.152344 0 Z M 779.152344 0 " clip-rule="nonzero"/></clipPath><clipPath id="0a5b7bbc73"><rect x="0" width="1559" y="0" height="1559"/></clipPath></defs><g clip-path="url(#576ed07f0a)"><g mask="url(#f116c123b4)"><g transform="matrix(1, 0, 0, 1, 0, 0.000000000000078219)"><g clip-path="url(#0a5b7bbc73)"><g clip-path="url(#3cb20923c7)"><g clip-path="url(#eb128c7246)"><path fill="#5f9cbb" d="M 0 0 L 1558.304688 0 L 1558.304688 1558.304688 L 0 1558.304688 Z M 0 0 " fill-opacity="1" fill-rule="nonzero"/></g></g></g></g></g></g></svg>